<?xml version="1.0" encoding="utf-8"?>
<!-- Generator: Adobe Illustrator 18.0.0, SVG Export Plug-In . SVG Version: 6.00 Build 0)  -->
<!DOCTYPE svg PUBLIC "-//W3C//DTD SVG 1.1//EN" "http://www.w3.org/Graphics/SVG/1.1/DTD/svg11.dtd">
<svg version="1.1" id="Layer_1" xmlns="http://www.w3.org/2000/svg" xmlns:xlink="http://www.w3.org/1999/xlink" x="0px" y="0px"
	 viewBox="0 0 200 92" enable-background="new 0 0 200 92" xml:space="preserve">
<g transform="translate(0.000000,92.000000) scale(0.100000,-0.100000)">
	<path fill="#FFFFFF" d="M420,869C213,828,62,611,97,405c13-75,48-156,88-203l28-33l53,52c30,30,54,60,54,69c0,8-7,33-15,55
		c-21,59-19,190,5,267c21,70,72,138,124,165c47,25,158,22,219-7c70-33,118-96,203-266c62-122,90-166,146-228c88-96,197-169,305-203
		c72-22,96-25,185-21c89,3,112,8,168,34c211,100,289,343,181,570c-36,77-130,165-205,193c-117,44-277,36-385-18
		c-63-32-151-114-200-185l-32-46l-50,60C829,828,619,908,420,869z M1525,770c81-35,136-114,161-229c18-86,18-143-1-216
		c-33-124-116-195-229-195c-123,0-209,69-308,245c-90,161-88,144-36,217C1239,770,1382,831,1525,770z"/>
</g>
</svg>
